<svg width="21" height="21" viewBox="0 0 21 21" fill="none" xmlns="http://www.w3.org/2000/svg">
<path d="M18.3579 19.8878H2.62244C2.26402 19.8878 1.9668 19.5906 1.9668 19.2322C1.9668 18.8738 2.26402 18.5765 2.62244 18.5765H18.3579C18.7163 18.5765 19.0136 18.8738 19.0136 19.2322C19.0136 19.5906 18.7163 19.8878 18.3579 19.8878Z" fill="#48466D"/>
<path d="M4.89533 17.2652H3.49664C2.65741 17.2652 1.9668 16.5746 1.9668 15.7353V8.19976C1.9668 7.36053 2.65741 6.66992 3.49664 6.66992H4.89533C5.73455 6.66992 6.42517 7.36053 6.42517 8.19976V15.7353C6.42517 16.5746 5.73455 17.2652 4.89533 17.2652ZM3.49664 7.97246C3.37425 7.97246 3.27809 8.06862 3.27809 8.19101V15.7353C3.27809 15.8577 3.37425 15.9539 3.49664 15.9539H4.89533C5.01771 15.9539 5.11388 15.8577 5.11388 15.7353V8.19976C5.11388 8.07737 5.01771 7.98121 4.89533 7.98121H3.49664V7.97246Z" fill="#48466D"/>
<path d="M11.1898 17.2652H9.79107C8.95184 17.2652 8.26123 16.5746 8.26123 15.7354V5.41119C8.26123 4.57196 8.95184 3.88135 9.79107 3.88135H11.1898C12.029 3.88135 12.7196 4.57196 12.7196 5.41119V15.7354C12.7196 16.5746 12.029 17.2652 11.1898 17.2652ZM9.79107 5.19264C9.66868 5.19264 9.57252 5.2888 9.57252 5.41119V15.7354C9.57252 15.8578 9.66868 15.9539 9.79107 15.9539H11.1898C11.3122 15.9539 11.4083 15.8578 11.4083 15.7354V5.41119C11.4083 5.2888 11.3122 5.19264 11.1898 5.19264H9.79107Z" fill="#48466D"/>
<path d="M17.4842 17.2654H16.0855C15.2463 17.2654 14.5557 16.5747 14.5557 15.7355V2.62261C14.5557 1.78339 15.2463 1.09277 16.0855 1.09277H17.4842C18.3234 1.09277 19.0141 1.78339 19.0141 2.62261V15.7355C19.0141 16.5747 18.3234 17.2654 17.4842 17.2654ZM16.0855 2.40406C15.9631 2.40406 15.867 2.50023 15.867 2.62261V15.7355C15.867 15.8579 15.9631 15.9541 16.0855 15.9541H17.4842C17.6066 15.9541 17.7028 15.8579 17.7028 15.7355V2.62261C17.7028 2.50023 17.6066 2.40406 17.4842 2.40406H16.0855Z" fill="#48466D"/>
</svg>
