<svg width="20" height="20" viewBox="0 0 20 18" fill="none" xmlns="http://www.w3.org/2000/svg">
<path d="M19.7089 2.95481C19.6165 2.86147 19.5063 2.78746 19.385 2.73706C19.2636 2.68667 19.1334 2.66091 19.002 2.66128H18.2963V0.99798C18.296 0.733391 18.1908 0.479723 18.0037 0.29263C17.8166 0.105537 17.5629 0.000297162 17.2983 0H2.93685C2.15795 1.10281e-05 1.41096 0.309432 0.860195 0.860195C0.309432 1.41096 1.10281e-05 2.15795 0 2.93685V14.3615C1.10281e-05 15.1404 0.309432 15.8874 0.860195 16.4381C1.41096 16.9889 2.15795 17.2983 2.93685 17.2983H18.9627C19.2267 17.2978 19.4798 17.1929 19.6667 17.0066C19.8537 16.8202 19.9594 16.5675 19.9607 16.3035L20 3.66267C20.0008 3.53128 19.9755 3.40104 19.9255 3.27952C19.8756 3.158 19.802 3.04762 19.7089 2.95481ZM18.6312 15.9677H2.93685C2.51086 15.9677 2.10231 15.7985 1.80109 15.4972C1.49987 15.196 1.33064 14.7875 1.33064 14.3615V2.93685C1.33064 2.51085 1.49987 2.10231 1.80109 1.80109C2.10231 1.49987 2.51086 1.33064 2.93685 1.33064H16.9657V2.66128H2.99394V3.99192H18.6683L18.6312 15.9677Z" fill="#48466D"/>
<path d="M16.9659 8.98181H15.6353V10.3125H16.9659V8.98181Z" fill="#48466D"/>
</svg>
