<svg width="20" height="20" viewBox="0 0 18 19" fill="none" xmlns="http://www.w3.org/2000/svg">
<path fill-rule="evenodd" clip-rule="evenodd" d="M5.89269 3.29023C5.95935 2.82481 6.10158 2.56811 6.30307 2.39539C6.63839 2.10798 7.36285 1.85002 8.9999 1.85002C10.637 1.85002 11.3614 2.10798 11.6967 2.39539C11.8985 2.56838 12.0409 2.82561 12.1074 3.29243C11.2012 3.18947 10.1685 3.15002 8.9999 3.15002C7.8299 3.15002 6.79765 3.18959 5.89269 3.29023ZM4.15879 3.6032C4.20273 2.67767 4.42661 1.76476 5.19673 1.10466C6.02808 0.392068 7.30362 0.150024 8.9999 0.150024C10.6962 0.150024 11.9717 0.392068 12.8031 1.10466C13.5762 1.76732 13.7988 2.68476 13.8415 3.61398C14.7271 3.86095 15.4775 4.23422 16.0803 4.79772C17.2613 5.90161 17.6877 7.55946 17.8091 9.73896C17.8356 9.82122 17.8499 9.90895 17.8499 10C17.8499 10.1577 17.8468 10.3169 17.8386 10.4766C17.8465 10.7793 17.8499 11.0911 17.8499 11.4118C17.8499 13.8466 17.532 15.8446 16.0662 17.1541C14.6392 18.429 12.3373 18.85 8.9999 18.85C7.31509 18.85 5.91591 18.768 4.77115 18.5397C3.62212 18.3105 2.67013 17.9227 1.93458 17.2676C0.455156 15.95 0.149902 13.8223 0.149902 11C0.149902 10.7798 0.15176 10.5639 0.155889 10.3522C0.151642 10.2343 0.149902 10.1167 0.149902 10C0.149902 9.93311 0.157635 9.868 0.172255 9.80554C0.264444 7.57216 0.67174 5.85718 1.93458 4.73246C2.53519 4.19754 3.28011 3.84084 4.15879 3.6032ZM1.8569 10.341C1.91084 7.91926 2.27958 6.70168 3.06523 6.00196C3.49635 5.618 4.12768 5.32221 5.10366 5.12755C6.08389 4.93205 7.35139 4.85002 8.9999 4.85002C10.6492 4.85002 11.9141 4.93218 12.8913 5.133C13.8622 5.33253 14.4891 5.63738 14.9195 6.03964C15.6916 6.76138 16.0645 8.0152 16.1367 10.459C16.1136 10.8253 16.0585 11.1213 15.9612 11.3695C15.8369 11.6868 15.6281 11.9659 15.2261 12.2153C14.3433 12.763 12.5691 13.15 9.00595 13.15C5.44313 13.15 3.66513 12.7631 2.77886 12.2147C2.37493 11.9648 2.16491 11.6851 2.03987 11.368C1.93186 11.094 1.87542 10.7617 1.8569 10.341ZM15.9825 13.743C15.8013 14.7423 15.4646 15.412 14.9336 15.8864C14.0273 16.696 12.3292 17.15 8.9999 17.15C7.35139 17.15 6.08389 17.068 5.10366 16.8725C4.12768 16.6778 3.49635 16.3821 3.06523 15.9981C2.5476 15.5371 2.21095 14.8513 2.02607 13.7444C3.37561 14.5116 5.5683 14.85 9.00595 14.85C12.4446 14.85 14.6356 14.5114 15.9825 13.743ZM6.1499 11C6.1499 10.5306 6.53046 10.15 6.9999 10.15H10.9999C11.4693 10.15 11.8499 10.5306 11.8499 11C11.8499 11.4695 11.4693 11.85 10.9999 11.85L6.9999 11.85C6.53046 11.85 6.1499 11.4695 6.1499 11Z" fill="#48466D"/>
</svg>

