<svg width="20" height="20" viewBox="0 0 24 24" fill="none" xmlns="http://www.w3.org/2000/svg">
<path fill-rule="evenodd" clip-rule="evenodd" d="M6.60555 6.51381C8.19373 7.05878 9.85704 5.96493 10.1525 4.45578C10.3342 3.67144 10.5474 3.32843 10.7589 3.15288C10.9631 2.98343 11.3115 2.85002 12.0683 2.85002C12.6539 2.85002 12.9863 2.99732 13.2034 3.20133C13.4369 3.42076 13.6534 3.81474 13.7833 4.52745L13.7833 4.52745L13.7841 4.53191C13.9395 5.35918 14.509 5.98302 15.171 6.32813C15.8349 6.67422 16.6678 6.78322 17.453 6.50679C17.464 6.50295 17.4748 6.49888 17.4855 6.4946C18.2387 6.19434 18.6481 6.20027 18.8981 6.28471C19.144 6.36776 19.4261 6.59084 19.775 7.18207C20.1317 7.78639 20.1787 8.10883 20.1377 8.32689C20.0949 8.55517 19.9138 8.89273 19.2774 9.42091L19.2657 9.43075C17.9885 10.5299 17.9885 12.4702 19.2657 13.5693L19.2774 13.5791C19.9138 14.1073 20.0949 14.4449 20.1377 14.6732C20.1787 14.8912 20.1317 15.2137 19.775 15.818C19.428 16.4059 19.1417 16.6393 18.882 16.7328C18.6168 16.8284 18.1996 16.8429 17.4488 16.5868C15.926 16.0535 14.0762 16.9608 13.7818 18.6708C13.651 19.4306 13.4407 19.7312 13.2527 19.8768C13.0501 20.0337 12.697 20.15 11.9701 20.15C11.2705 20.15 10.9105 20.0198 10.6989 19.8501C10.4939 19.6857 10.2863 19.3695 10.1576 18.6662C9.8607 16.9591 8.01294 16.054 6.49144 16.5868C5.74068 16.8429 5.32348 16.8284 5.05826 16.7328C4.79852 16.6393 4.51222 16.4059 4.16523 15.818C4.16047 15.8099 4.15559 15.8019 4.15057 15.7941C3.84551 15.3141 3.81361 14.9816 3.87819 14.7201C3.95076 14.4263 4.18763 14.0489 4.75688 13.5826L4.77267 13.5693C6.07189 12.4512 5.9292 10.5134 4.67821 9.52707C4.11061 8.97077 3.9334 8.6171 3.89222 8.36081C3.85303 8.11688 3.90933 7.78515 4.25613 7.19435C4.57418 6.69784 4.86777 6.48719 5.15534 6.39861C5.4641 6.30349 5.90822 6.30483 6.60555 6.51381ZM12.0683 1.15002C11.1569 1.15002 10.3277 1.30162 9.67333 1.84466C9.02757 2.38055 8.70241 3.17442 8.49229 4.08987C8.48975 4.10091 8.48744 4.112 8.48535 4.12314C8.3793 4.68784 7.70777 5.09967 7.14987 4.90326C7.13793 4.89905 7.12588 4.89511 7.11376 4.89144C6.25025 4.63019 5.42314 4.53728 4.65487 4.77394C3.8653 5.01717 3.27809 5.56393 2.814 6.29405C2.80898 6.30195 2.80409 6.30992 2.79934 6.31797C2.36758 7.04948 2.08149 7.80735 2.21375 8.63049C2.3435 9.43803 2.8471 10.1207 3.52886 10.7807C3.55407 10.8051 3.58077 10.8279 3.60879 10.849C4.07877 11.2029 4.11446 11.8861 3.67012 12.2752C2.9683 12.8521 2.42417 13.5174 2.22778 14.3125C2.02361 15.1391 2.23367 15.9423 2.70824 16.6939C3.14508 17.4308 3.69123 18.0473 4.4821 18.3322C5.27135 18.6165 6.12897 18.5071 7.04433 18.1944L7.04434 18.1944L7.05175 18.1918C7.68683 17.9682 8.38522 18.3908 8.48307 18.9592L8.48303 18.9592L8.48452 18.9674C8.65025 19.8767 8.98195 20.6522 9.63521 21.1762C10.2822 21.6952 11.0997 21.85 11.9701 21.85C12.8133 21.85 13.6377 21.7289 14.2937 21.2208C14.9643 20.7014 15.2936 19.9095 15.4572 18.9592C15.555 18.3908 16.2534 17.9682 16.8885 18.1918L16.8885 18.1918L16.8959 18.1944C17.8113 18.5071 18.6689 18.6165 19.4582 18.3322C20.2533 18.0458 20.801 17.4242 21.239 16.6821C21.6674 15.9564 21.9638 15.1863 21.8085 14.3594C21.6556 13.5452 21.1037 12.8868 20.3698 12.2766C19.8872 11.8565 19.8872 11.1435 20.3698 10.7235C21.1037 10.1133 21.6556 9.45486 21.8085 8.64066C21.9638 7.81371 21.6674 7.04366 21.239 6.31797C20.803 5.57921 20.251 4.94729 19.4421 4.67409C18.6428 4.40417 17.783 4.54867 16.8751 4.90788C16.5839 5.00578 16.2453 4.97101 15.9569 4.82067C15.6629 4.66742 15.4967 4.43705 15.4552 4.21981C15.2906 3.31868 14.9675 2.52621 14.3675 1.96247C13.7506 1.38273 12.9545 1.15002 12.0683 1.15002ZM9.8502 11.5C9.8502 10.3126 10.8128 9.35002 12.0002 9.35002C13.1876 9.35002 14.1502 10.3126 14.1502 11.5C14.1502 12.6874 13.1876 13.65 12.0002 13.65C10.8128 13.65 9.8502 12.6874 9.8502 11.5ZM12.0002 7.65002C9.8739 7.65002 8.1502 9.37373 8.1502 11.5C8.1502 13.6263 9.8739 15.35 12.0002 15.35C14.1265 15.35 15.8502 13.6263 15.8502 11.5C15.8502 9.37373 14.1265 7.65002 12.0002 7.65002Z" fill="#48466D"/>
</svg>
